<svg width="100" height="38" viewBox="0 0 100 38" fill="none" xmlns="http://www.w3.org/2000/svg">
<g id="logo">
<g id="Group">
<g id="Group_2">
<path id="Vector" d="M65.5867 9.56728C65.1533 5.54333 62.6439 2.14533 59.0166 0.714596C55.3894 -0.71614 51.2603 0.0439387 48.3403 2.61479C46.5837 1.07228 44.3024 0.155715 41.9299 0.0439386C39.1011 -0.0901929 36.432 0.871083 34.4016 2.77128C32.5082 4.53734 31.3447 6.97407 31.1166 9.61199C31.0025 10.9309 31.1394 12.2499 31.5729 13.6583L13.8701 13.6136C13.3911 13.6136 13.0032 13.8371 12.7751 14.2172C12.5242 14.6419 12.5242 15.1784 12.7751 15.6032C13.0032 15.9832 13.3911 16.2068 13.8701 16.2068L33.4435 16.2515C33.8998 16.2515 34.2648 16.0503 34.4929 15.715C34.7438 15.3349 34.7895 14.7984 34.5841 14.3513C33.0557 10.8862 33.626 7.21997 36.067 4.80561C37.5726 3.33016 39.5573 2.57008 41.6333 2.63715C43.8233 2.70421 45.9221 3.7102 47.3821 5.36449C47.6102 5.61039 47.9524 5.76688 48.3403 5.76688C48.7281 5.76688 49.0703 5.63275 49.2984 5.36449C51.5569 2.81599 54.956 1.92178 58.0129 3.08425C60.7048 4.11259 62.6439 6.68345 62.9633 9.63434C63.0545 10.4838 63.8301 10.9086 64.5373 10.8415C65.2217 10.7521 65.6552 10.2379 65.5867 9.56728Z" fill="#2B3541"/>
<path id="Vector_2" d="M9.39895 26.1548H6.25079C5.86297 26.1548 5.56641 25.8418 5.56641 25.4841V4.20191C5.56641 3.82187 5.88579 3.53125 6.25079 3.53125H9.42177C9.80958 3.53125 10.1061 3.84422 10.1061 4.20191V25.4841C10.0833 25.8418 9.78677 26.1548 9.39895 26.1548Z" fill="#2B3541"/>
<path id="Vector_3" d="M3.87817 23.4945H0.684384C0.319379 23.4945 0 23.2039 0 22.8239V6.79517C0 6.43749 0.296566 6.12451 0.684384 6.12451H3.87817C4.24318 6.12451 4.56256 6.41513 4.56256 6.79517V22.8239C4.56256 23.2039 4.26599 23.4945 3.87817 23.4945Z" fill="#2B3541"/>
<path id="Vector_4" d="M14.9198 28.4575H11.7716C11.3838 28.4575 11.0645 28.1445 11.0645 27.7645V1.8771C11.0645 1.49706 11.3838 1.18408 11.7716 1.18408H14.9198C15.3076 1.18408 15.627 1.49706 15.627 1.8771V27.7868C15.627 28.1669 15.3076 28.4575 14.9198 28.4575Z" fill="#2B3541"/>
</g>
<g id="Group_3">
<path id="Vector_5" d="M82.9702 14.2174C82.7421 13.8373 82.3543 13.6138 81.8752 13.6138L63.3284 13.6585C62.9178 13.6585 62.3703 13.882 62.1649 14.3291C60.0662 18.8896 55.823 22.31 52.7889 24.5008C51.4429 25.4621 50.097 26.3563 48.751 27.1611L48.6141 27.2281C48.4088 27.3399 48.4088 27.3399 48.2263 27.2728C47.7016 27.0716 47.1769 26.714 46.6751 26.3786C46.4697 26.2445 46.2644 26.1104 46.0819 25.9762C44.7132 25.1044 43.5269 24.2772 42.4319 23.4501C40.2647 21.7734 38.4853 20.0968 36.9796 18.2637C36.5462 17.7271 35.8618 17.6601 35.3143 18.0848C34.7668 18.5096 34.5158 19.3591 35.0633 20.0297C36.5234 21.7958 38.2571 23.4724 40.3787 25.1267C41.6106 26.088 42.9109 27.0269 44.2569 27.8988C44.9413 28.3459 45.6713 28.793 46.4241 29.2401L46.5838 29.3295C47.1085 29.6425 47.7016 30.0002 48.4088 30.0002C48.5457 30.0002 48.7054 29.9778 48.8651 29.9555C49.4354 29.8213 49.9829 29.4637 50.4848 29.1507C50.6217 29.0613 50.7357 28.9718 50.8726 28.9048C51.6711 28.413 52.4695 27.8764 53.268 27.3399C55.5036 25.7974 57.3971 24.2772 59.0852 22.69C61.3893 20.4992 63.0547 18.3754 64.1725 16.2517L81.8752 16.207C82.3543 16.207 82.7421 15.9834 82.9702 15.6034C83.2212 15.1786 83.2212 14.6421 82.9702 14.2174Z" fill="#FBF138"/>
<path id="Vector_6" d="M87.6014 26.1548H90.7724C91.1602 26.1548 91.4567 25.8418 91.4567 25.4841V4.20191C91.4567 3.82187 91.1374 3.53125 90.7724 3.53125H87.6014C87.2136 3.53125 86.917 3.84422 86.917 4.20191V25.4841C86.917 25.8418 87.2136 26.1548 87.6014 26.1548Z" fill="#FBF138"/>
<path id="Vector_7" d="M93.1219 23.4948H96.3157C96.6807 23.4948 97.0001 23.2042 97.0001 22.8241V6.79541C97.0001 6.43773 96.7035 6.12476 96.3157 6.12476H93.1219C92.7569 6.12476 92.4375 6.41537 92.4375 6.79541V22.8241C92.4375 23.2042 92.7341 23.4948 93.1219 23.4948Z" fill="#FBF138"/>
<path id="Vector_8" d="M82.0807 28.4575H85.2289C85.6167 28.4575 85.9361 28.1445 85.9361 27.7645V1.8771C85.9361 1.49706 85.6167 1.18408 85.2289 1.18408H82.0807C81.6929 1.18408 81.3735 1.49706 81.3735 1.8771V27.7868C81.3735 28.1669 81.6929 28.4575 82.0807 28.4575Z" fill="#FBF138"/>
</g>
</g>
</g>
</svg>
