<svg width="96" height="29" viewBox="0 0 96 29" fill="none" xmlns="http://www.w3.org/2000/svg">
<rect width="78" height="29" fill="#FEFCFE"/>
<path d="M64.9104 9.24837C64.4815 5.35855 61.9979 2.07382 58.4081 0.690776C54.8183 -0.692269 50.7317 0.0424741 47.8418 2.52763C46.1033 1.03654 43.8455 0.150524 41.4975 0.042474C38.6979 -0.0871865 36.0563 0.842046 34.0469 2.6789C32.1729 4.3861 31.0215 6.7416 30.7957 9.29159C30.6828 10.5666 30.8183 11.8416 31.2472 13.203L13.727 13.1598C13.2529 13.1598 12.8691 13.3759 12.6433 13.7433C12.3949 14.1539 12.3949 14.6725 12.6433 15.0831C12.8691 15.4505 13.2529 15.6666 13.727 15.6666L33.0986 15.7098C33.5502 15.7098 33.9114 15.5153 34.1372 15.1911C34.3855 14.8238 34.4307 14.3051 34.2275 13.8729C32.7148 10.5234 33.2792 6.97931 35.695 4.64542C37.1852 3.21915 39.1494 2.48441 41.204 2.54924C43.3714 2.61407 45.4486 3.58652 46.8935 5.18567C47.1193 5.42338 47.458 5.57465 47.8418 5.57465C48.2256 5.57465 48.5643 5.44499 48.79 5.18567C51.0252 2.72212 54.3893 1.85772 57.4147 2.98144C60.0788 3.97551 61.9979 6.46067 62.314 9.3132C62.4043 10.1344 63.172 10.545 63.8719 10.4801C64.5492 10.3937 64.9782 9.89667 64.9104 9.24837Z" fill="#2A2A2A"/>
<path d="M9.30183 25.283H6.18612C5.8023 25.283 5.50879 24.9805 5.50879 24.6347V4.06192C5.50879 3.69455 5.82488 3.41362 6.18612 3.41362H9.3244C9.70822 3.41362 10.0017 3.71616 10.0017 4.06192V24.6347C9.97915 24.9805 9.68564 25.283 9.30183 25.283Z" fill="#2A2A2A"/>
<path d="M3.83819 22.7114H0.677328C0.316087 22.7114 0 22.4305 0 22.0631V6.56868C0 6.22292 0.293509 5.92038 0.677328 5.92038H3.83819C4.19944 5.92038 4.51552 6.20131 4.51552 6.56868V22.0631C4.51552 22.4305 4.22201 22.7114 3.83819 22.7114Z" fill="#2A2A2A"/>
<path d="M14.7658 27.5089H11.6501C11.2663 27.5089 10.9502 27.2063 10.9502 26.839V1.81449C10.9502 1.44712 11.2663 1.14458 11.6501 1.14458H14.7658C15.1496 1.14458 15.4657 1.44712 15.4657 1.81449V26.8606C15.4657 27.2279 15.1496 27.5089 14.7658 27.5089Z" fill="#2A2A2A"/>
<rect x="77.1958" width="18.8041" height="29" fill="#FEFCFE"/>
<path d="M82.1148 13.7433C81.889 13.3759 81.5052 13.1598 81.0311 13.1598L62.6755 13.203C62.2691 13.203 61.7272 13.4191 61.524 13.8513C59.4469 18.2598 55.2474 21.5661 52.2446 23.6839C50.9125 24.6132 49.5804 25.4776 48.2484 26.2555L48.1129 26.3204C47.9097 26.4284 47.9097 26.4284 47.7291 26.3636C47.2098 26.1691 46.6905 25.8233 46.1938 25.4992C45.9906 25.3695 45.7874 25.2399 45.6068 25.1102C44.2521 24.2674 43.0781 23.4678 41.9944 22.6683C39.8495 21.0475 38.0884 19.4268 36.5983 17.6547C36.1693 17.1361 35.492 17.0712 34.9501 17.4818C34.4083 17.8924 34.1599 18.7136 34.7018 19.3619C36.1468 21.0691 37.8627 22.6899 39.9624 24.289C41.1816 25.2183 42.4685 26.1259 43.8006 26.9687C44.4779 27.4009 45.2004 27.8331 45.9454 28.2653L46.1035 28.3517C46.6228 28.6543 47.2098 29 47.9097 29C48.0452 29 48.2032 28.9784 48.3613 28.9568C48.9257 28.8271 49.4676 28.4814 49.9643 28.1788C50.0997 28.0924 50.2126 28.006 50.3481 27.9411C51.1383 27.4657 51.9285 26.9471 52.7187 26.4284C54.9313 24.9373 56.8053 23.4678 58.476 21.9335C60.7564 19.8157 62.4045 17.7628 63.5108 15.7098L81.0311 15.6666C81.5052 15.6666 81.889 15.4505 82.1148 15.0831C82.3631 14.6725 82.3631 14.1539 82.1148 13.7433Z" fill="#FBF138"/>
<path d="M86.6978 25.283H89.8361C90.2199 25.283 90.5135 24.9805 90.5135 24.6347V4.06192C90.5135 3.69455 90.1974 3.41362 89.8361 3.41362H86.6978C86.314 3.41362 86.0205 3.71616 86.0205 4.06192V24.6347C86.0205 24.9805 86.314 25.283 86.6978 25.283Z" fill="#FBF138"/>
<path d="M92.1617 22.7115H95.3226C95.6838 22.7115 95.9999 22.4305 95.9999 22.0632V6.56874C95.9999 6.22298 95.7064 5.92044 95.3226 5.92044H92.1617C91.8005 5.92044 91.4844 6.20137 91.4844 6.56874V22.0632C91.4844 22.4305 91.7779 22.7115 92.1617 22.7115Z" fill="#FBF138"/>
<path d="M81.2341 27.5089H84.3498C84.7336 27.5089 85.0497 27.2063 85.0497 26.839V1.81449C85.0497 1.44712 84.7336 1.14458 84.3498 1.14458H81.2341C80.8503 1.14458 80.5342 1.44712 80.5342 1.81449V26.8606C80.5342 27.2279 80.8503 27.5089 81.2341 27.5089Z" fill="#FBF138"/>
</svg>
